PathFileType	4	(X/Y/Z)	C:/Users/beibeiliu/ov580/test_trc/User3\sequence.7_training_dense_left.trc
DataRate	CameraRate	NumFrames	NumMarkers	Units	OrigDataRate	OrigDataStartFrame	OrigNumFrames
120	120	7	19	mm	120	76	200
Frame#	Time	ThumbCMC			ThumbMCP			ThumbIP			ThumbTip			IndexMCP			IndexPIP			IndexTip			MiddleMCP			MiddlePIP			MiddleTip			RingMCP			RingPIP			RingTip			PinkyMCP			PinkyPIP			PinkyTip			BackHand1			BackHand2			BackHand3	
		X0	Y0	Z0	X1	Y1	Z1	X2	Y2	Z2	X3	Y3	Z3	X4	Y4	Z4	X5	Y5	Z5	X6	Y6	Z6	X7	Y7	Z7	X8	Y8	Z8	X9	Y9	Z9	X10	Y10	Z10	X11	Y11	Z11	X12	Y12	Z12	X13	Y13	Z13	X14	Y14	Z14	X15	Y15	Z15	X16	Y16	Z16	X17	Y17	Z17	X18	Y18	Z18	
75	0.625	-107.772	-5.40695	1.70588	-95.2989	-17.5989	-24.7802	-83.1304	-25.3596	-49.8869	-81.9847	-36.415	-72.1012	-134.549	25.617	-66.2429	-128.66	18.4681	-97.9346	-121.387	0.964978	-117.863	-156.034	27.1497	-69.3234	-158.032	20.0445	-99.7588	-153.645	-7.35656	-126.073	-175.176	-0.211946	-63.267	-167.877	-25.9995	-79.7727	-156.787	-52.3983	-57.1312	-184.628	-16.0189	-47.3025	-174.136	-42.3577	-48.7242	-156.478	-40.3007	-22.5516	-171.727	17.5117	-10.7003	-168.394	10.1462	24.6328	-140.964	19.8017	6.28616	
76	0.633333	-107.768	-5.32872	0.0552509	-93.9261	-17.5625	-23.0075	-87.0364	-25.4315	-50.8573	-80.8935	-35.6583	-72.5433	-129.354	25.3741	-63.3841	-124.229	20.2371	-95.65	-124.613	1.45183	-116.144	-156.907	27.2056	-70.6663	-159.13	19.9146	-99.9381	-152.847	-3.95952	-124.046	-172.293	1.74376	-62.4728	-171.676	-28.743	-78.3685	-160.418	-51.0331	-60.2926	-187.159	-17.849	-49.2018	-174.834	-42.0618	-49.4823	-157.417	-41.7291	-19.55	-172.881	15.274	-5.72666	-174.11	10.6981	21.6619	-142.254	21.0996	2.6164	
77	0.641667	-112.948	-7.15164	4.17366	-98.2114	-17.8907	-22.9398	-84.9189	-27.1868	-48.7862	-81.966	-35.8433	-69.1879	-133.94	23.9437	-63.2305	-127.12	18.9644	-94.9012	-125.781	-0.619608	-117.284	-156.382	25.9221	-67.7801	-156.806	19.629	-96.7811	-156.273	-6.1304	-121.973	-174.91	-1.08298	-62.5502	-172.396	-29.9868	-76.658	-159.215	-53.6357	-58.0394	-185.909	-18.2236	-49.7735	-172.606	-43.1132	-48.3666	-159.35	-41.5988	-24.0293	-176.567	16.8864	-6.03816	-173.938	7.83156	24.3046	-144.099	19.6472	4.33057	
78	0.65	-109.595	-9.08307	5.88875	-98.082	-19.4782	-23.4748	-87.3111	-28.7577	-47.1603	-85.8433	-37.4058	-69.1543	-133.517	21.1664	-64.6566	-126.558	17.4871	-91.9932	-125.367	-0.45434	-113.985	-161.197	22.4434	-64.4644	-158.206	15.3151	-100.017	-153.747	-7.92479	-122.507	-175.667	-0.94608	-59.0065	-174.721	-30.4464	-76.7737	-162.132	-53.5543	-61.3431	-187.942	-17.8959	-44.8011	-172.888	-44.91	-47.0061	-160.189	-44.7712	-21.6156	-173.601	12.5314	-3.50445	-173.235	6.27583	23.5272	-140.8	15.883	5.92308	
79	0.658333	-112.461	-13.1215	4.80016	-97.6067	-24.0608	-20.8515	-84.2828	-33.0874	-46.7872	-83.0761	-42.1422	-68.4387	-135.613	16.9467	-62.2563	-129.971	11.2041	-95.1659	-125.097	-3.06752	-114.19	-161.235	18.2998	-66.2383	-157.644	13.059	-95.667	-157.528	-11.6951	-120.733	-175.369	-5.80193	-63.2852	-174.892	-33.3836	-75.4679	-160.974	-56.7943	-59.8554	-188.462	-22.3708	-46.0319	-177.69	-48.4287	-47.7905	-162.832	-48.9808	-21.7806	-176.513	8.47224	-2.74807	-173.017	5.71432	23.9386	-142.57	14.2681	6.41238	
80	0.666667	-114.516	-15.6272	4.57875	-96.2125	-27.3764	-17.8462	-88.5396	-34.8502	-46.6182	-85.8607	-45.5857	-66.3835	-134.957	15.9237	-66.2556	-130.799	8.95771	-95.8263	-124.464	-8.68328	-116.247	-160.927	16.012	-66.8787	-160.42	9.63448	-98.6593	-156.291	-14.0394	-121.253	-174.555	-7.03759	-59.9206	-172.271	-32.255	-76.5659	-158.858	-58.7833	-56.881	-191.194	-27.4271	-47.7217	-176.132	-47.5018	-48.0029	-163.971	-51.9422	-20.4546	-179.213	10.0732	-7.56577	-171.217	2.44838	24.266	-142.207	11.2735	7.04407	
81	0.675	-109.64	-14.1872	5.59992	-96.2651	-25.9905	-20.5409	-86.141	-33.9416	-47.0234	-84.9754	-45.0298	-66.8882	-133.915	16.1033	-63.6808	-131.707	11.9638	-92.903	-129.202	-7.59001	-116.4	-156.902	17.6934	-67.7102	-155.88	11.6724	-98.6562	-159.553	-13.71	-122.389	-176.514	-6.7663	-59.6481	-175.578	-32.332	-76.1751	-158.849	-59.0142	-56.4163	-185.834	-24.6948	-48.0337	-174.653	-47.7585	-47.3713	-164.581	-51.4309	-17.134	-178.511	9.72248	-5.20018	-175.774	2.61659	23.6173	-142.585	11.7809	5.65285	
